<mxfile host="app.diagrams.net" modified="2024-05-03T02:05:54.617Z" agent="Mozilla/5.0 (Windows NT 10.0; Win64; x64) AppleWebKit/537.36 (KHTML, like Gecko) Chrome/124.0.0.0 Safari/537.36" etag="P6jqcq3TCpgfGOT_MFJr" version="24.3.1" type="github">
  <diagram name="PÃ¡gina-1" id="TuJseqrYwOlEyPbi6d8L">
    <mxGraphModel dx="880" dy="500" grid="1" gridSize="10" guides="1" tooltips="1" connect="1" arrows="1" fold="1" page="1" pageScale="1" pageWidth="827" pageHeight="1169" math="0" shadow="0">
      <root>
        <mxCell id="0" />
        <mxCell id="1" parent="0" />
        <mxCell id="htek8pda7dbtRimHxg5w-3" value="Servidor&lt;div&gt;&lt;br&gt;&lt;/div&gt;" style="image;html=1;image=img/lib/clip_art/computers/Server_128x128.png" vertex="1" parent="1">
          <mxGeometry x="334" y="180" width="80" height="80" as="geometry" />
        </mxCell>
        <mxCell id="htek8pda7dbtRimHxg5w-4" value="Base de Datos MySql" style="shape=cylinder3;whiteSpace=wrap;html=1;boundedLbl=1;backgroundOutline=1;size=15;" vertex="1" parent="1">
          <mxGeometry x="558" y="90" width="60" height="80" as="geometry" />
        </mxCell>
        <mxCell id="htek8pda7dbtRimHxg5w-6" value="" style="sketch=0;outlineConnect=0;fontColor=#232F3E;gradientColor=none;fillColor=#01A88D;strokeColor=none;dashed=0;verticalLabelPosition=bottom;verticalAlign=top;align=center;html=1;fontSize=12;fontStyle=0;aspect=fixed;shape=mxgraph.aws4.transfer_for_ftp_resource;" vertex="1" parent="1">
          <mxGeometry x="550" y="270" width="76" height="78" as="geometry" />
        </mxCell>
        <mxCell id="htek8pda7dbtRimHxg5w-7" value="Actor" style="shape=umlActor;verticalLabelPosition=bottom;verticalAlign=top;html=1;outlineConnect=0;" vertex="1" parent="1">
          <mxGeometry x="50" y="190" width="30" height="60" as="geometry" />
        </mxCell>
        <mxCell id="htek8pda7dbtRimHxg5w-9" value="CodeIgniter" style="sketch=0;pointerEvents=1;shadow=0;dashed=0;html=1;strokeColor=none;fillColor=#505050;labelPosition=center;verticalLabelPosition=bottom;verticalAlign=top;outlineConnect=0;align=center;shape=mxgraph.office.concepts.web_page;" vertex="1" parent="1">
          <mxGeometry x="170" y="80" width="50" height="54" as="geometry" />
        </mxCell>
        <mxCell id="htek8pda7dbtRimHxg5w-12" value="Python" style="verticalLabelPosition=bottom;sketch=0;aspect=fixed;html=1;verticalAlign=top;strokeColor=none;align=center;outlineConnect=0;shape=mxgraph.citrix.desktop;" vertex="1" parent="1">
          <mxGeometry x="160" y="260" width="89" height="98" as="geometry" />
        </mxCell>
        <mxCell id="htek8pda7dbtRimHxg5w-15" value="" style="endArrow=classic;startArrow=classic;html=1;rounded=0;exitX=0;exitY=0.25;exitDx=0;exitDy=0;" edge="1" parent="1" source="htek8pda7dbtRimHxg5w-3" target="htek8pda7dbtRimHxg5w-9">
          <mxGeometry width="50" height="50" relative="1" as="geometry">
            <mxPoint x="390" y="220" as="sourcePoint" />
            <mxPoint x="340" y="160" as="targetPoint" />
          </mxGeometry>
        </mxCell>
        <mxCell id="htek8pda7dbtRimHxg5w-17" value="" style="endArrow=classic;startArrow=classic;html=1;rounded=0;entryX=0;entryY=1;entryDx=0;entryDy=-15;entryPerimeter=0;" edge="1" parent="1" target="htek8pda7dbtRimHxg5w-4">
          <mxGeometry width="50" height="50" relative="1" as="geometry">
            <mxPoint x="420" y="200" as="sourcePoint" />
            <mxPoint x="460" y="160" as="targetPoint" />
          </mxGeometry>
        </mxCell>
        <mxCell id="htek8pda7dbtRimHxg5w-18" value="" style="endArrow=classic;startArrow=classic;html=1;rounded=0;" edge="1" parent="1" source="htek8pda7dbtRimHxg5w-3" target="htek8pda7dbtRimHxg5w-6">
          <mxGeometry width="50" height="50" relative="1" as="geometry">
            <mxPoint x="430" y="340" as="sourcePoint" />
            <mxPoint x="480" y="290" as="targetPoint" />
          </mxGeometry>
        </mxCell>
        <mxCell id="htek8pda7dbtRimHxg5w-19" value="" style="endArrow=classic;startArrow=classic;html=1;rounded=0;" edge="1" parent="1" target="htek8pda7dbtRimHxg5w-12">
          <mxGeometry width="50" height="50" relative="1" as="geometry">
            <mxPoint x="330" y="250" as="sourcePoint" />
            <mxPoint x="440" y="170" as="targetPoint" />
          </mxGeometry>
        </mxCell>
      </root>
    </mxGraphModel>
  </diagram>
</mxfile>
